<svg width="429" height="98.772" viewBox="0 0 370 85.188" class="prefix__looka-1j8o68f"><g transform="matrix(1.62262 0 0 1.62262 0 -.049)" fill="#fcfcfc"><g fill="#fcfcfc" fill-rule="nonzero" xmlns="http://www.w3.org/2000/svg"><path d="M0 35.69v15.84h14.37V36.06h10.74l7.25-14.48H14.11C6.32 21.58 0 27.9 0 35.69zM0 .03c0 7.96 6.45 14.41 14.41 14.41h21.51L43.14.03H0z"/></g></g><path d="M90.353 15.917h22.998l-.282 8.818-10.37-.705.564 12.628 9.03-.988.282 7.972h-10.512l1.2 24.55L90 67.84V18.668zm53.545 6.914l-.282 38.236-.776 5.08-2.258 1.834-7.196.776-13.192-1.27-1.905-1.905-1.34-2.892.282-12.134c0-5.291.07-10.089.212-14.321-.07-7.196 0-14.392.211-14.745 0-.282.424-1.481 1.2-2.61l.917-2.257 11.146-1.059 7.972.988 3.95 1.552zm-12.77 35.626l2.611-1.058.847-26.385-1.694-.988-6.772-.14-.635 2.398.141 9.947v15.803l1.129.211zm18.06.494l.353-42.046 2.752-1.2 8.465.494 1.905.706-.705 16.578-.847 25.89 2.822 3.81 5.362-1.128-.424-29.983.424-16.296h6.701l.212 45.785-1.905 4.656-8.818 2.54-12.698-1.764zm32.664-42.963l9.03.282 7.619 35.767.635-3.739L197.09 16.2l7.83-.14 3.105.705-1.411 50.793-6.279.847-6.279-.353-4.162-30.97-1.481-4.585.211 35.414-7.266.635-.353-30.265zm44.726 10.44l-7.407-.775-.776 32.451 6.773.141.987-1.058 1.693-16.86v-8.114zM213.386 16.34h2.187l5.644-.14c3.104-.071 6.067-.142 7.407.07l4.163 1.2c.846.281 1.693.634 2.54.987l3.88 6.208c.282 4.444.493 8.607.564 12.557 0 6.773 0 14.18-.565 17.284-.352 2.187-.846 4.021-.917 5.362a8.457 8.457 0 00-.282 2.187l-3.739 5.573-8.466.494h-12.768zm37.249 28.29l7.055-.353-.212-9.806-1.764-6.843-4.374-.353zm1.905-28.854h4.515l9.241.635 1.905 25.608.706 25.538-2.117.141-7.972.353h-.846l-.635-15.873-6.632-.423-1.763 16.226-6.914.211 2.258-26.384 2.046-15.097 1.481-10.582zm15.802.564l14.321-.423 7.478.282 2.117.141-.777 10.23-5.643-.353.423 41.764-12.487.14.635-24.832.282-17.213-6.843-.635zm26.949 12.417l11.287.282-.564 8.818.847 17.919-.494 11.922-.988.142-9.876-.212-.424-3.245-.14-18.907zM295.714 15l10.653.141.494 2.751v4.727l-.283 2.54-11.287.07-.353-4.585-.14-4.939zm42.822 7.83l-.282 38.237-.776 5.08-2.258 1.834-7.195.776-13.193-1.27-1.904-1.905-1.34-2.892.282-12.134c0-5.291.07-10.089.211-14.321-.07-7.196 0-14.392.212-14.745 0-.282.423-1.481 1.2-2.61l.916-2.257 11.147-1.059 7.971.988 3.951 1.552zm-12.769 35.627l2.61-1.058.847-26.385-1.693-.988-6.773-.14-.635 2.398.142 9.947v15.803l1.128.211zm18.06-42.47l9.03.283 7.62 35.767.634-3.739-2.046-32.099 7.831-.14 3.104.705-1.41 50.793-6.28.847-6.278-.353-4.162-30.97-1.482-4.585.212 35.414-7.267.635-.352-30.265z" fill="#fcfcfc"/></svg>